<svg viewBox="0 0 1200 800" xmlns="http://www.w3.org/2000/svg" font-family="Segoe UI, Arial, sans-serif">

  <!-- Background -->
  <rect width="1200" height="800" fill="#0f1117"/>

  <!-- Title -->
  <text x="600" y="45" text-anchor="middle" fill="#ffffff" font-size="22" font-weight="bold">Banking Data Platform — End-to-End Architecture</text>
  <text x="600" y="68" text-anchor="middle" fill="#888888" font-size="13">AWS S3 · Snowflake · Apache Airflow · GitHub Actions</text>

  <!-- ── LAYER LABELS ───────────────────────────────────────── -->

  <!-- Source Label -->
  <text x="60" y="115" fill="#888888" font-size="11" font-weight="bold" letter-spacing="2">SOURCE SYSTEMS</text>

  <!-- Ingestion Label -->
  <text x="280" y="115" fill="#888888" font-size="11" font-weight="bold" letter-spacing="2">INGESTION</text>

  <!-- Bronze Label -->
  <text x="480" y="115" fill="#888888" font-size="11" font-weight="bold" letter-spacing="2">BRONZE (RAW)</text>

  <!-- Silver Label -->
  <text x="680" y="115" fill="#888888" font-size="11" font-weight="bold" letter-spacing="2">SILVER</text>

  <!-- Gold Label -->
  <text x="890" y="115" fill="#888888" font-size="11" font-weight="bold" letter-spacing="2">GOLD</text>

  <!-- Analytics Label -->
  <text x="1090" y="115" fill="#888888" font-size="11" font-weight="bold" letter-spacing="2">ANALYTICS</text>

  <!-- ── SOURCE SYSTEMS ─────────────────────────────────────── -->

  <!-- Source box -->
  <rect x="20" y="130" width="140" height="460" rx="8" fill="#1a1f2e" stroke="#2d3650" stroke-width="1.5"/>

  <!-- Customers -->
  <rect x="35" y="150" width="110" height="70" rx="6" fill="#1e3a5f" stroke="#2196F3" stroke-width="1.5"/>
  <text x="90" y="178" text-anchor="middle" fill="#2196F3" font-size="18">👤</text>
  <text x="90" y="196" text-anchor="middle" fill="#ffffff" font-size="11" font-weight="bold">Customers</text>
  <text x="90" y="211" text-anchor="middle" fill="#888888" font-size="10">500 records</text>

  <!-- Accounts -->
  <rect x="35" y="235" width="110" height="70" rx="6" fill="#1e3a5f" stroke="#2196F3" stroke-width="1.5"/>
  <text x="90" y="263" text-anchor="middle" fill="#2196F3" font-size="18">🏦</text>
  <text x="90" y="281" text-anchor="middle" fill="#ffffff" font-size="11" font-weight="bold">Accounts</text>
  <text x="90" y="296" text-anchor="middle" fill="#888888" font-size="10">1,026 records</text>

  <!-- Transactions -->
  <rect x="35" y="320" width="110" height="70" rx="6" fill="#1e3a5f" stroke="#2196F3" stroke-width="1.5"/>
  <text x="90" y="348" text-anchor="middle" fill="#2196F3" font-size="18">💳</text>
  <text x="90" y="366" text-anchor="middle" fill="#ffffff" font-size="11" font-weight="bold">Transactions</text>
  <text x="90" y="381" text-anchor="middle" fill="#888888" font-size="10">5,741 records</text>

  <!-- Fraud Flags -->
  <rect x="35" y="405" width="110" height="70" rx="6" fill="#1e3a5f" stroke="#2196F3" stroke-width="1.5"/>
  <text x="90" y="433" text-anchor="middle" fill="#2196F3" font-size="18">🚨</text>
  <text x="90" y="451" text-anchor="middle" fill="#ffffff" font-size="11" font-weight="bold">Fraud Flags</text>
  <text x="90" y="466" text-anchor="middle" fill="#888888" font-size="10">487 records</text>

  <!-- CSV Format -->
  <rect x="35" y="490" width="110" height="40" rx="6" fill="#111827" stroke="#374151" stroke-width="1"/>
  <text x="90" y="514" text-anchor="middle" fill="#6b7280" font-size="10">CSV · JSON · Parquet</text>

  <!-- ── INGESTION LAYER ─────────────────────────────────────── -->

  <!-- Ingestion box -->
  <rect x="180" y="130" width="160" height="460" rx="8" fill="#1a1f2e" stroke="#2d3650" stroke-width="1.5"/>

  <!-- Python S3 Uploader -->
  <rect x="195" y="150" width="130" height="110" rx="6" fill="#1a2e1a" stroke="#4CAF50" stroke-width="1.5"/>
  <text x="260" y="178" text-anchor="middle" fill="#4CAF50" font-size="18">🐍</text>
  <text x="260" y="196" text-anchor="middle" fill="#ffffff" font-size="11" font-weight="bold">S3 Uploader</text>
  <text x="260" y="212" text-anchor="middle" fill="#888888" font-size="10">MD5 checksums</text>
  <text x="260" y="226" text-anchor="middle" fill="#888888" font-size="10">Retry + backoff</text>
  <text x="260" y="240" text-anchor="middle" fill="#888888" font-size="10">Upload manifest</text>

  <!-- Pydantic Schemas -->
  <rect x="195" y="275" width="130" height="80" rx="6" fill="#1a2e1a" stroke="#4CAF50" stroke-width="1.5"/>
  <text x="260" y="300" text-anchor="middle" fill="#4CAF50" font-size="18">📋</text>
  <text x="260" y="318" text-anchor="middle" fill="#ffffff" font-size="11" font-weight="bold">Data Contracts</text>
  <text x="260" y="334" text-anchor="middle" fill="#888888" font-size="10">Pydantic schemas</text>
  <text x="260" y="348" text-anchor="middle" fill="#888888" font-size="10">Field validation</text>

  <!-- Partitioning -->
  <rect x="195" y="370" width="130" height="80" rx="6" fill="#1a2e1a" stroke="#4CAF50" stroke-width="1.5"/>
  <text x="260" y="395" text-anchor="middle" fill="#4CAF50" font-size="16">📂</text>
  <text x="260" y="413" text-anchor="middle" fill="#ffffff" font-size="11" font-weight="bold">Partitioning</text>
  <text x="260" y="429" text-anchor="middle" fill="#888888" font-size="10">year=/month=/day=</text>
  <text x="260" y="443" text-anchor="middle" fill="#888888" font-size="10">Hive-style layout</text>

  <!-- Loguru -->
  <rect x="195" y="465" width="130" height="50" rx="6" fill="#111827" stroke="#374151" stroke-width="1"/>
  <text x="260" y="486" text-anchor="middle" fill="#6b7280" font-size="10">Structured Logging</text>
  <text x="260" y="500" text-anchor="middle" fill="#6b7280" font-size="10">loguru · rotating files</text>

  <!-- ── BRONZE LAYER (S3) ───────────────────────────────────── -->

  <!-- Bronze box -->
  <rect x="365" y="130" width="170" height="460" rx="8" fill="#1a1f2e" stroke="#CD7F32" stroke-width="2"/>
  <text x="450" y="150" text-anchor="middle" fill="#CD7F32" font-size="10" font-weight="bold">AWS S3</text>

  <!-- S3 Icon area -->
  <rect x="380" y="158" width="140" height="50" rx="6" fill="#2d1f0a" stroke="#CD7F32" stroke-width="1.5"/>
  <text x="450" y="178" text-anchor="middle" fill="#CD7F32" font-size="14">☁️</text>
  <text x="450" y="196" text-anchor="middle" fill="#CD7F32" font-size="11" font-weight="bold">banking-data-platform-raw</text>

  <!-- RAW tables -->
  <rect x="380" y="220" width="140" height="55" rx="6" fill="#2d1f0a" stroke="#CD7F32" stroke-width="1"/>
  <text x="450" y="240" text-anchor="middle" fill="#ffffff" font-size="11" font-weight="bold">RAW_CUSTOMERS</text>
  <text x="450" y="256" text-anchor="middle" fill="#888888" font-size="10">All VARCHAR · as-landed</text>
  <text x="450" y="269" text-anchor="middle" fill="#CD7F32" font-size="9">_source_file · _batch_id</text>

  <rect x="380" y="285" width="140" height="55" rx="6" fill="#2d1f0a" stroke="#CD7F32" stroke-width="1"/>
  <text x="450" y="305" text-anchor="middle" fill="#ffffff" font-size="11" font-weight="bold">RAW_ACCOUNTS</text>
  <text x="450" y="321" text-anchor="middle" fill="#888888" font-size="10">All VARCHAR · as-landed</text>
  <text x="450" y="334" text-anchor="middle" fill="#CD7F32" font-size="9">_source_file · _batch_id</text>

  <rect x="380" y="350" width="140" height="55" rx="6" fill="#2d1f0a" stroke="#CD7F32" stroke-width="1"/>
  <text x="450" y="370" text-anchor="middle" fill="#ffffff" font-size="11" font-weight="bold">RAW_TRANSACTIONS</text>
  <text x="450" y="386" text-anchor="middle" fill="#888888" font-size="10">All VARCHAR · as-landed</text>
  <text x="450" y="399" text-anchor="middle" fill="#CD7F32" font-size="9">_source_file · _batch_id</text>

  <rect x="380" y="415" width="140" height="55" rx="6" fill="#2d1f0a" stroke="#CD7F32" stroke-width="1"/>
  <text x="450" y="435" text-anchor="middle" fill="#ffffff" font-size="11" font-weight="bold">RAW_FRAUD_FLAGS</text>
  <text x="450" y="451" text-anchor="middle" fill="#888888" font-size="10">All VARCHAR · as-landed</text>
  <text x="450" y="464" text-anchor="middle" fill="#CD7F32" font-size="9">_source_file · _batch_id</text>

  <!-- COPY INTO label -->
  <rect x="380" y="480" width="140" height="40" rx="6" fill="#111827" stroke="#374151" stroke-width="1"/>
  <text x="450" y="496" text-anchor="middle" fill="#6b7280" font-size="10">COPY INTO · S3 Stage</text>
  <text x="450" y="510" text-anchor="middle" fill="#6b7280" font-size="10">AES256 encrypted</text>

  <!-- ── SILVER LAYER ────────────────────────────────────────── -->

  <!-- Silver box -->
  <rect x="560" y="130" width="170" height="460" rx="8" fill="#1a1f2e" stroke="#C0C0C0" stroke-width="2"/>
  <text x="645" y="150" text-anchor="middle" fill="#C0C0C0" font-size="10" font-weight="bold">SNOWFLAKE · SILVER</text>

  <rect x="575" y="158" width="140" height="55" rx="6" fill="#1f2937" stroke="#C0C0C0" stroke-width="1.5"/>
  <text x="645" y="176" text-anchor="middle" fill="#ffffff" font-size="11" font-weight="bold">SILVER_CUSTOMERS</text>
  <text x="645" y="191" text-anchor="middle" fill="#888888" font-size="10">Typed · Cleaned · SCD2</text>
  <text x="645" y="204" text-anchor="middle" fill="#C0C0C0" font-size="9">dq_is_valid · dq_issues</text>

  <rect x="575" y="223" width="140" height="55" rx="6" fill="#1f2937" stroke="#C0C0C0" stroke-width="1.5"/>
  <text x="645" y="241" text-anchor="middle" fill="#ffffff" font-size="11" font-weight="bold">SILVER_ACCOUNTS</text>
  <text x="645" y="256" text-anchor="middle" fill="#888888" font-size="10">Typed · Validated</text>
  <text x="645" y="269" text-anchor="middle" fill="#C0C0C0" font-size="9">dq_is_valid · dq_issues</text>

  <rect x="575" y="288" width="140" height="55" rx="6" fill="#1f2937" stroke="#C0C0C0" stroke-width="1.5"/>
  <text x="645" y="306" text-anchor="middle" fill="#ffffff" font-size="11" font-weight="bold">SILVER_TRANSACTIONS</text>
  <text x="645" y="321" text-anchor="middle" fill="#888888" font-size="10">Typed · Deduplicated</text>
  <text x="645" y="334" text-anchor="middle" fill="#C0C0C0" font-size="9">is_debit · is_credit</text>

  <rect x="575" y="353" width="140" height="55" rx="6" fill="#1f2937" stroke="#C0C0C0" stroke-width="1.5"/>
  <text x="645" y="371" text-anchor="middle" fill="#ffffff" font-size="11" font-weight="bold">SILVER_FRAUD_FLAGS</text>
  <text x="645" y="386" text-anchor="middle" fill="#888888" font-size="10">Typed · Scored</text>
  <text x="645" y="399" text-anchor="middle" fill="#C0C0C0" font-size="9">severity_rank · score</text>

  <!-- DQ box -->
  <rect x="575" y="418" width="140" height="60" rx="6" fill="#1a2a1a" stroke="#4CAF50" stroke-width="1.5"/>
  <text x="645" y="436" text-anchor="middle" fill="#4CAF50" font-size="11" font-weight="bold">DQ Framework</text>
  <text x="645" y="451" text-anchor="middle" fill="#888888" font-size="10">12 checks · 100% passing</text>
  <text x="645" y="465" text-anchor="middle" fill="#888888" font-size="10">Nulls · Dupes · Rules</text>

  <!-- Error box -->
  <rect x="575" y="488" width="140" height="40" rx="6" fill="#2a1a1a" stroke="#ef4444" stroke-width="1"/>
  <text x="645" y="504" text-anchor="middle" fill="#ef4444" font-size="10" font-weight="bold">ERROR.REJECT_RECORDS</text>
  <text x="645" y="518" text-anchor="middle" fill="#888888" font-size="10">Failed DQ → reason codes</text>

  <!-- ── GOLD LAYER ──────────────────────────────────────────── -->

  <!-- Gold box -->
  <rect x="758" y="130" width="180" height="460" rx="8" fill="#1a1f2e" stroke="#FFD700" stroke-width="2"/>
  <text x="848" y="150" text-anchor="middle" fill="#FFD700" font-size="10" font-weight="bold">SNOWFLAKE · GOLD</text>

  <!-- DIM_DATE -->
  <rect x="773" y="158" width="150" height="55" rx="6" fill="#2a2200" stroke="#FFD700" stroke-width="1.5"/>
  <text x="848" y="176" text-anchor="middle" fill="#FFD700" font-size="11" font-weight="bold">DIM_DATE</text>
  <text x="848" y="191" text-anchor="middle" fill="#888888" font-size="10">2,922 rows · 2020-2027</text>
  <text x="848" y="204" text-anchor="middle" fill="#888888" font-size="9">Weekday · Quarter · YTD</text>

  <!-- DIM_CUSTOMERS -->
  <rect x="773" y="223" width="150" height="60" rx="6" fill="#2a2200" stroke="#FFD700" stroke-width="1.5"/>
  <text x="848" y="241" text-anchor="middle" fill="#FFD700" font-size="11" font-weight="bold">DIM_CUSTOMERS</text>
  <text x="848" y="256" text-anchor="middle" fill="#888888" font-size="10">500 rows · SCD Type 2</text>
  <text x="848" y="269" text-anchor="middle" fill="#888888" font-size="9">Age band · Credit tier</text>
  <text x="848" y="281" text-anchor="middle" fill="#FFD700" font-size="9">effective_from/to · is_current</text>

  <!-- DIM_ACCOUNTS -->
  <rect x="773" y="293" width="150" height="55" rx="6" fill="#2a2200" stroke="#FFD700" stroke-width="1.5"/>
  <text x="848" y="311" text-anchor="middle" fill="#FFD700" font-size="11" font-weight="bold">DIM_ACCOUNTS</text>
  <text x="848" y="326" text-anchor="middle" fill="#888888" font-size="10">1,026 rows · SCD Type 1</text>
  <text x="848" y="339" text-anchor="middle" fill="#888888" font-size="9">Account type desc · Age band</text>

  <!-- FACT_TRANSACTIONS -->
  <rect x="773" y="358" width="150" height="60" rx="6" fill="#2a2200" stroke="#FFD700" stroke-width="1.5"/>
  <text x="848" y="376" text-anchor="middle" fill="#FFD700" font-size="11" font-weight="bold">FACT_TRANSACTIONS</text>
  <text x="848" y="391" text-anchor="middle" fill="#888888" font-size="10">5,741 rows</text>
  <text x="848" y="404" text-anchor="middle" fill="#888888" font-size="9">account_key · customer_key</text>
  <text x="848" y="416" text-anchor="middle" fill="#FFD700" font-size="9">date_key · is_fraud_flagged</text>

  <!-- FACT_FRAUD -->
  <rect x="773" y="428" width="150" height="60" rx="6" fill="#2a2200" stroke="#FFD700" stroke-width="1.5"/>
  <text x="848" y="446" text-anchor="middle" fill="#FFD700" font-size="11" font-weight="bold">FACT_FRAUD</text>
  <text x="848" y="461" text-anchor="middle" fill="#888888" font-size="10">487 rows</text>
  <text x="848" y="474" text-anchor="middle" fill="#888888" font-size="9">fraud_score_band · SLA met</text>
  <text x="848" y="486" text-anchor="middle" fill="#FFD700" font-size="9">severity_rank · days_to_review</text>

  <!-- DQ Gold -->
  <rect x="773" y="498" width="150" height="40" rx="6" fill="#1a2a1a" stroke="#4CAF50" stroke-width="1"/>
  <text x="848" y="514" text-anchor="middle" fill="#4CAF50" font-size="10">7 DQ checks · 100% passing</text>
  <text x="848" y="528" text-anchor="middle" fill="#888888" font-size="9">RI · Dupes · Row counts</text>

  <!-- ── ANALYTICS ───────────────────────────────────────────── -->

  <!-- Analytics box -->
  <rect x="965" y="130" width="150" height="460" rx="8" fill="#1a1f2e" stroke="#2d3650" stroke-width="1.5"/>

  <rect x="980" y="150" width="120" height="60" rx="6" fill="#1e1a3a" stroke="#9c27b0" stroke-width="1.5"/>
  <text x="1040" y="172" text-anchor="middle" fill="#9c27b0" font-size="16">📊</text>
  <text x="1040" y="190" text-anchor="middle" fill="#ffffff" font-size="11" font-weight="bold">BI Dashboards</text>
  <text x="1040" y="203" text-anchor="middle" fill="#888888" font-size="10">Tableau · PowerBI</text>

  <rect x="980" y="225" width="120" height="60" rx="6" fill="#1e1a3a" stroke="#9c27b0" stroke-width="1.5"/>
  <text x="1040" y="247" text-anchor="middle" fill="#9c27b0" font-size="16">🔍</text>
  <text x="1040" y="265" text-anchor="middle" fill="#ffffff" font-size="11" font-weight="bold">Ad-hoc Queries</text>
  <text x="1040" y="278" text-anchor="middle" fill="#888888" font-size="10">Snowflake UI · SQL</text>

  <rect x="980" y="300" width="120" height="60" rx="6" fill="#1e1a3a" stroke="#9c27b0" stroke-width="1.5"/>
  <text x="1040" y="322" text-anchor="middle" fill="#9c27b0" font-size="16">🤖</text>
  <text x="1040" y="340" text-anchor="middle" fill="#ffffff" font-size="11" font-weight="bold">ML Models</text>
  <text x="1040" y="353" text-anchor="middle" fill="#888888" font-size="10">Fraud detection</text>

  <rect x="980" y="375" width="120" height="60" rx="6" fill="#1e1a3a" stroke="#9c27b0" stroke-width="1.5"/>
  <text x="1040" y="397" text-anchor="middle" fill="#9c27b0" font-size="16">📱</text>
  <text x="1040" y="415" text-anchor="middle" fill="#ffffff" font-size="11" font-weight="bold">APIs</text>
  <text x="1040" y="428" text-anchor="middle" fill="#888888" font-size="10">Customer 360</text>

  <rect x="980" y="450" width="120" height="60" rx="6" fill="#1e1a3a" stroke="#9c27b0" stroke-width="1.5"/>
  <text x="1040" y="472" text-anchor="middle" fill="#9c27b0" font-size="16">📋</text>
  <text x="1040" y="490" text-anchor="middle" fill="#ffffff" font-size="11" font-weight="bold">Regulatory</text>
  <text x="1040" y="503" text-anchor="middle" fill="#888888" font-size="10">BSA/AML · SOX</text>

  <!-- ── FLOW ARROWS ─────────────────────────────────────────── -->

  <!-- Source → Ingestion -->
  <line x1="160" y1="360" x2="180" y2="360" stroke="#4CAF50" stroke-width="2" marker-end="url(#arrow-green)"/>

  <!-- Ingestion → Bronze -->
  <line x1="345" y1="360" x2="365" y2="360" stroke="#4CAF50" stroke-width="2" marker-end="url(#arrow-green)"/>
  <text x="355" y="350" text-anchor="middle" fill="#4CAF50" font-size="9">S3 PUT</text>

  <!-- Bronze → Silver -->
  <line x1="535" y1="360" x2="560" y2="360" stroke="#CD7F32" stroke-width="2" marker-end="url(#arrow-bronze)"/>
  <text x="547" y="350" text-anchor="middle" fill="#CD7F32" font-size="9">COPY INTO</text>

  <!-- Silver → Gold -->
  <line x1="730" y1="360" x2="758" y2="360" stroke="#C0C0C0" stroke-width="2" marker-end="url(#arrow-silver)"/>
  <text x="744" y="350" text-anchor="middle" fill="#C0C0C0" font-size="9">INSERT</text>

  <!-- Gold → Analytics -->
  <line x1="938" y1="360" x2="965" y2="360" stroke="#FFD700" stroke-width="2" marker-end="url(#arrow-gold)"/>
  <text x="951" y="350" text-anchor="middle" fill="#FFD700" font-size="9">SELECT</text>

  <!-- ── ORCHESTRATION BANNER ───────────────────────────────── -->

  <rect x="20" y="615" width="1150" height="80" rx="8" fill="#0d1117" stroke="#017CEE" stroke-width="1.5"/>
  <text x="600" y="638" text-anchor="middle" fill="#017CEE" font-size="13" font-weight="bold">🔄 Apache Airflow (MWAA) — Pipeline Orchestration</text>

  <!-- DAG boxes -->
  <rect x="40" y="648" width="160" height="35" rx="5" fill="#011e40" stroke="#017CEE" stroke-width="1"/>
  <text x="120" y="662" text-anchor="middle" fill="#017CEE" font-size="10" font-weight="bold">banking_00_master</text>
  <text x="120" y="676" text-anchor="middle" fill="#888888" font-size="9">Daily 11 PM · End-to-end</text>

  <rect x="215" y="648" width="160" height="35" rx="5" fill="#011e40" stroke="#017CEE" stroke-width="1"/>
  <text x="295" y="662" text-anchor="middle" fill="#017CEE" font-size="10" font-weight="bold">banking_01_ingestion</text>
  <text x="295" y="676" text-anchor="middle" fill="#888888" font-size="9">Daily 12 AM · S3 upload</text>

  <rect x="390" y="648" width="180" height="35" rx="5" fill="#011e40" stroke="#017CEE" stroke-width="1"/>
  <text x="480" y="662" text-anchor="middle" fill="#017CEE" font-size="10" font-weight="bold">banking_02_bronze_silver</text>
  <text x="480" y="676" text-anchor="middle" fill="#888888" font-size="9">Daily 1 AM · ELT transform</text>

  <rect x="585" y="648" width="180" height="35" rx="5" fill="#011e40" stroke="#017CEE" stroke-width="1"/>
  <text x="675" y="662" text-anchor="middle" fill="#017CEE" font-size="10" font-weight="bold">banking_03_silver_gold</text>
  <text x="675" y="676" text-anchor="middle" fill="#888888" font-size="9">Daily 3 AM · Dim models</text>

  <rect x="780" y="648" width="180" height="35" rx="5" fill="#011e40" stroke="#017CEE" stroke-width="1"/>
  <text x="870" y="662" text-anchor="middle" fill="#017CEE" font-size="10" font-weight="bold">banking_04_data_quality</text>
  <text x="870" y="676" text-anchor="middle" fill="#888888" font-size="9">Daily 6 AM · 19 DQ checks</text>

  <rect x="975" y="648" width="180" height="35" rx="5" fill="#011e40" stroke="#017CEE" stroke-width="1"/>
  <text x="1065" y="662" text-anchor="middle" fill="#017CEE" font-size="10" font-weight="bold">GitHub Actions CI/CD</text>
  <text x="1065" y="676" text-anchor="middle" fill="#888888" font-size="9">PR checks · Deploy · DQ</text>

  <!-- DAG arrows -->
  <line x1="200" y1="665" x2="215" y2="665" stroke="#017CEE" stroke-width="1.5" marker-end="url(#arrow-blue)"/>
  <line x1="375" y1="665" x2="390" y2="665" stroke="#017CEE" stroke-width="1.5" marker-end="url(#arrow-blue)"/>
  <line x1="570" y1="665" x2="585" y2="665" stroke="#017CEE" stroke-width="1.5" marker-end="url(#arrow-blue)"/>
  <line x1="765" y1="665" x2="780" y2="665" stroke="#017CEE" stroke-width="1.5" marker-end="url(#arrow-blue)"/>
  <line x1="960" y1="665" x2="975" y2="665" stroke="#017CEE" stroke-width="1.5" marker-end="url(#arrow-blue)"/>

  <!-- ── ARROW MARKERS ──────────────────────────────────────── -->
  <defs>
    <marker id="arrow-green" markerWidth="8" markerHeight="8" refX="6" refY="3" orient="auto">
      <path d="M0,0 L0,6 L8,3 z" fill="#4CAF50"/>
    </marker>
    <marker id="arrow-bronze" markerWidth="8" markerHeight="8" refX="6" refY="3" orient="auto">
      <path d="M0,0 L0,6 L8,3 z" fill="#CD7F32"/>
    </marker>
    <marker id="arrow-silver" markerWidth="8" markerHeight="8" refX="6" refY="3" orient="auto">
      <path d="M0,0 L0,6 L8,3 z" fill="#C0C0C0"/>
    </marker>
    <marker id="arrow-gold" markerWidth="8" markerHeight="8" refX="6" refY="3" orient="auto">
      <path d="M0,0 L0,6 L8,3 z" fill="#FFD700"/>
    </marker>
    <marker id="arrow-blue" markerWidth="8" markerHeight="8" refX="6" refY="3" orient="auto">
      <path d="M0,0 L0,6 L8,3 z" fill="#017CEE"/>
    </marker>
  </defs>

</svg>